<svg width="18" height="25" viewBox="0 0 18 25" fill="none" xmlns="http://www.w3.org/2000/svg">
<path fill-rule="evenodd" clip-rule="evenodd" d="M8.8188 23.2715C4.51168 23.2715 0.833496 22.6013 0.833496 19.9171C0.833496 17.2328 4.48834 14.7549 8.8188 14.7549C13.1259 14.7549 16.8041 17.2088 16.8041 19.893C16.8041 22.5762 13.1493 23.2715 8.8188 23.2715Z" stroke="#212121" stroke-width="1.5" stroke-linecap="round" stroke-linejoin="round"/>
<path fill-rule="evenodd" clip-rule="evenodd" d="M8.81041 11.0357C11.6369 11.0357 13.9278 8.7448 13.9278 5.91829C13.9278 3.09177 11.6369 0.799805 8.81041 0.799805C5.98389 0.799805 3.69192 3.09177 3.69192 5.91829C3.68238 8.73526 5.95738 11.0262 8.77435 11.0357C8.78708 11.0357 8.79874 11.0357 8.81041 11.0357Z" stroke="#212121" stroke-width="1.5" stroke-linecap="round" stroke-linejoin="round"/>
</svg>
