<svg width="20" height="20" viewBox="0 0 20 20" fill="none" xmlns="http://www.w3.org/2000/svg">
<path fill-rule="evenodd" clip-rule="evenodd" d="M5.666 1.5C3.136 1.5 1.5 3.233 1.5 5.916V14.084C1.5 16.767 3.136 18.5 5.666 18.5H14.335C16.865 18.5 18.5 16.767 18.5 14.084V5.916C18.5 3.233 16.865 1.5 14.335 1.5H5.666ZM14.335 20H5.666C2.277 20 0 17.622 0 14.084V5.916C0 2.378 2.277 0 5.666 0H14.335C17.724 0 20 2.378 20 5.916V14.084C20 17.622 17.724 20 14.335 20Z" fill="#212121"/>
<path fill-rule="evenodd" clip-rule="evenodd" d="M10 14.8359C9.586 14.8359 9.25 14.4999 9.25 14.0859V5.91394C9.25 5.49994 9.586 5.16394 10 5.16394C10.414 5.16394 10.75 5.49994 10.75 5.91394V14.0859C10.75 14.4999 10.414 14.8359 10 14.8359Z" fill="#212121"/>
<path fill-rule="evenodd" clip-rule="evenodd" d="M10.0002 14.8369C9.80119 14.8369 9.60919 14.7579 9.46919 14.6159L5.72119 10.8519C5.42819 10.5579 5.43019 10.0829 5.72319 9.79089C6.01719 9.49989 6.49119 9.49789 6.78319 9.79289L10.0002 13.0239L13.2172 9.79289C13.5102 9.49789 13.9842 9.49989 14.2772 9.79089C14.5702 10.0829 14.5722 10.5579 14.2792 10.8519L10.5312 14.6159C10.3912 14.7579 10.1992 14.8369 10.0002 14.8369Z" fill="#212121"/>
</svg>
