<svg width="20" height="18" viewBox="0 0 20 18" fill="none" xmlns="http://www.w3.org/2000/svg">
<path fill-rule="evenodd" clip-rule="evenodd" d="M13.04 1.05126C14.05 1.45326 14.359 2.85326 14.772 3.30326C15.185 3.75326 15.776 3.90626 16.103 3.90626C17.841 3.90626 19.25 5.31526 19.25 7.05226V12.8473C19.25 15.1773 17.36 17.0673 15.03 17.0673H4.97C2.639 17.0673 0.75 15.1773 0.75 12.8473V7.05226C0.75 5.31526 2.159 3.90626 3.897 3.90626C4.223 3.90626 4.814 3.75326 5.228 3.30326C5.641 2.85326 5.949 1.45326 6.959 1.05126C7.97 0.649256 12.03 0.649256 13.04 1.05126Z" stroke="#212121" stroke-width="1.5" stroke-linecap="round" stroke-linejoin="round"/>
<path d="M15.4955 6.5H15.5045" stroke="#212121" stroke-width="2" stroke-linecap="round" stroke-linejoin="round"/>
<path fill-rule="evenodd" clip-rule="evenodd" d="M13.1788 10.128C13.1788 8.37197 11.7558 6.94897 9.9998 6.94897C8.2438 6.94897 6.8208 8.37197 6.8208 10.128C6.8208 11.884 8.2438 13.307 9.9998 13.307C11.7558 13.307 13.1788 11.884 13.1788 10.128Z" stroke="#212121" stroke-width="1.5" stroke-linecap="round" stroke-linejoin="round"/>
</svg>
