<svg width="24" height="26" viewBox="0 0 24 26" fill="none" xmlns="http://www.w3.org/2000/svg">
<path fill-rule="evenodd" clip-rule="evenodd" d="M9.57586 24.443C5.1262 24.443 1.3252 23.7699 1.3252 21.0749C1.3252 18.3799 5.1017 15.9287 9.57586 15.9287C14.0255 15.9287 17.8265 18.3565 17.8265 21.0504C17.8265 23.7442 14.05 24.443 9.57586 24.443Z" stroke="#212121" stroke-width="1.5" stroke-linecap="round" stroke-linejoin="round"/>
<path fill-rule="evenodd" clip-rule="evenodd" d="M9.57564 12.0858C12.4958 12.0858 14.8641 9.71746 14.8641 6.79729C14.8641 3.87596 12.4958 1.50879 9.57564 1.50879C6.65548 1.50879 4.28714 3.87596 4.28714 6.79729C4.27664 9.70696 6.62864 12.0753 9.53831 12.0858H9.57564Z" stroke="#212121" stroke-width="1.5" stroke-linecap="round" stroke-linejoin="round"/>
<path d="M20.3197 8.48438V13.1627" stroke="#212121" stroke-width="1.5" stroke-linecap="round" stroke-linejoin="round"/>
<path d="M22.7072 10.8236H17.9355" stroke="#212121" stroke-width="1.5" stroke-linecap="round" stroke-linejoin="round"/>
</svg>
